<svg id="Capa_1" enable-background="new 0 0 512 512" height="512" viewBox="0 0 512 512" width="512" xmlns="http://www.w3.org/2000/svg" xmlns:xlink="http://www.w3.org/1999/xlink"><linearGradient id="SVGID_1_" gradientUnits="userSpaceOnUse" x1="256" x2="256" y1="512" y2="30"><stop offset="0" stop-color="#fd3a84"/><stop offset="1" stop-color="#ffa68d"/></linearGradient><linearGradient id="SVGID_2_" gradientUnits="userSpaceOnUse" x1="256.147" x2="256.147" y1="449.868" y2="0"><stop offset="0" stop-color="#ffc2cc"/><stop offset="1" stop-color="#fff2f4"/></linearGradient><g id="Check_list_3_"><g><g><path d="m436 30h-120c-8.291 0-15 6.709-15 15v15h-90v-15c0-8.291-6.709-15-15-15h-120c-8.291 0-15 6.709-15 15v452c0 8.291 6.709 15 15 15h360c8.291 0 15-6.709 15-15v-452c0-8.291-6.709-15-15-15z" fill="url(#SVGID_1_)"/></g></g><g><g><path d="m196 90h120c8.291 0 15-6.709 15-15v-30c0-25.239-19.761-45-45-45h-60c-24.814 0-45 20.186-45 45v30c0 8.291 6.709 15 15 15zm49.541 34.263-49.395 49.395-19.395-19.395c-5.859-5.859-15.352-5.859-21.211 0s-5.859 15.352 0 21.211l30 30c2.93 2.93 6.768 4.395 10.605 4.395s7.676-1.465 10.605-4.395l60-60c5.859-5.859 5.859-15.352 0-21.211s-15.35-5.86-21.209 0zm0 120-49.395 49.395-19.395-19.395c-5.859-5.859-15.352-5.859-21.211 0s-5.859 15.352 0 21.211l30 30c2.93 2.93 6.768 4.395 10.605 4.395s7.676-1.465 10.605-4.395l60-60c5.859-5.859 5.859-15.352 0-21.211s-15.35-5.86-21.209 0zm0 120-49.395 49.395-19.395-19.395c-5.859-5.859-15.352-5.859-21.211 0s-5.859 15.352 0 21.211l30 30c2.93 2.93 6.768 4.395 10.605 4.395s7.676-1.465 10.605-4.395l60-60c5.859-5.859 5.859-15.352 0-21.211s-15.35-5.86-21.209 0zm40.606-199.395c0 8.291 6.709 15 15 15h45c8.291 0 15-6.709 15-15s-6.709-15-15-15h-45c-8.291 0-15 6.709-15 15zm60 105h-45c-8.291 0-15 6.709-15 15s6.709 15 15 15h45c8.291 0 15-6.709 15-15s-6.709-15-15-15zm0 120h-45c-8.291 0-15 6.709-15 15s6.709 15 15 15h45c8.291 0 15-6.709 15-15s-6.709-15-15-15z" fill="url(#SVGID_2_)"/></g></g></g></svg>